<?xml version="1.0" standalone="no"?>
<!DOCTYPE svg PUBLIC "-//W3C//DTD SVG 20010904//EN"
 "http://www.w3.org/TR/2001/REC-SVG-20010904/DTD/svg10.dtd">
<svg version="1.0" xmlns="http://www.w3.org/2000/svg"
 width="520.000000pt" height="406.000000pt" viewBox="0 0 520.000000 406.000000"
 preserveAspectRatio="xMidYMid meet">

<g transform="translate(0.000000,406.000000) scale(0.100000,-0.100000)"
fill="#000000" stroke="none">
<path d="M1974 3802 c-18 -39 -26 -93 -43 -308 -12 -143 -21 -270 -21 -281 0
-14 -120 -135 -371 -374 l-371 -354 43 -7 c24 -3 67 -7 96 -7 l51 -1 286 292
285 292 93 -90 c51 -49 173 -161 271 -248 97 -87 176 -160 174 -162 -5 -6
-106 -13 -561 -39 -231 -14 -423 -28 -428 -33 -4 -4 -1 -201 7 -437 8 -237 15
-465 15 -509 l0 -79 41 6 c22 3 44 8 47 12 4 4 9 214 12 468 l5 462 106 3 106
3 37 -45 c20 -25 42 -51 49 -58 48 -51 87 -110 81 -120 -4 -7 -50 -66 -101
-130 l-93 -118 53 0 52 0 75 89 c41 50 78 90 82 90 4 1 53 -54 110 -121 56
-68 107 -126 113 -130 12 -9 105 -11 105 -2 0 3 -58 77 -130 164 -71 88 -130
162 -130 165 0 4 43 56 96 116 94 107 97 109 139 109 l42 0 7 -162 c3 -90 9
-261 12 -380 l7 -218 38 0 c38 0 39 1 39 38 0 87 13 548 19 674 l6 137 70 -63
71 -64 59 10 c33 5 61 10 63 12 1 2 -37 48 -85 102 -48 55 -103 117 -122 139
-19 22 -62 72 -96 110 -222 250 -379 433 -386 450 -4 11 -18 139 -30 285 -19
233 -25 271 -46 313 -13 26 -24 47 -26 47 -1 0 -12 -22 -23 -48z m186 -1390
c0 -11 -100 -132 -108 -131 -4 0 -31 29 -60 64 l-52 64 32 4 c61 7 188 7 188
-1z"/>
<path d="M2447 3683 c-14 -48 -37 -259 -73 -643 l-5 -55 86 -89 c48 -48 88
-87 90 -85 1 2 -8 189 -21 414 -22 377 -36 515 -54 515 -4 0 -14 -26 -23 -57z"/>
<path d="M1507 3662 c-11 -36 -24 -170 -37 -372 -11 -173 -23 -344 -27 -380
l-6 -65 82 75 c46 41 86 80 88 87 3 8 -2 93 -11 191 -9 97 -21 229 -26 292
-10 118 -28 218 -40 225 -4 2 -14 -21 -23 -53z"/>
<path d="M1159 2187 l-126 -22 90 -385 c49 -212 91 -387 93 -389 5 -6 105 17
122 28 10 6 8 79 -13 387 -14 208 -25 385 -25 392 0 6 -3 12 -7 11 -5 0 -65
-11 -134 -22z"/>
<path d="M3043 2043 c-3 -10 -35 -89 -70 -177 -35 -87 -63 -159 -61 -161 2 -1
24 -9 50 -18 l47 -16 91 150 c50 83 93 156 96 163 3 8 -20 24 -64 44 -80 37
-81 37 -89 15z"/>
<path d="M600 1745 c-43 -20 -74 -40 -72 -47 3 -12 90 -204 181 -400 l40 -87
58 26 c32 14 59 27 61 28 5 4 -176 509 -184 512 -5 1 -43 -13 -84 -32z"/>
<path d="M383 1551 c-33 -22 -64 -44 -67 -50 -4 -6 45 -96 109 -200 l117 -190
54 27 c30 14 54 29 54 33 0 7 -196 409 -203 415 -1 2 -30 -14 -64 -35z"/>
<path d="M240 1302 l-34 -29 73 -92 c40 -50 76 -91 79 -91 4 0 19 8 34 18 l27
18 -65 99 c-36 55 -69 101 -73 103 -3 1 -22 -11 -41 -26z"/>
<path d="M830 1101 c0 -6 23 -110 50 -232 28 -122 50 -223 50 -225 0 -2 20 -4
45 -4 l44 0 16 53 c8 28 30 106 49 172 18 66 36 113 39 105 3 -8 22 -78 42
-155 20 -77 38 -148 41 -158 5 -15 14 -17 51 -15 l46 3 52 233 51 232 -41 0
-41 0 -34 -165 c-21 -101 -38 -159 -42 -148 -3 10 -24 83 -46 163 l-39 145
-45 3 -45 3 -37 -143 c-21 -79 -40 -151 -43 -161 -3 -10 -7 -16 -10 -13 -3 3
-20 74 -37 158 l-32 153 -42 3 c-25 2 -42 -1 -42 -7z"/>
<path d="M1480 875 l0 -235 129 0 129 0 6 31 c3 17 6 35 6 40 0 4 -39 10 -87
11 l-88 3 -3 58 -3 57 71 0 70 0 0 40 0 40 -70 0 -70 0 0 55 0 55 85 0 85 0 0
40 0 40 -130 0 -130 0 0 -235z"/>
<path d="M1820 876 l0 -236 45 0 45 0 0 90 c0 79 2 90 18 90 12 0 33 -29 65
-90 l48 -90 51 0 50 0 -57 106 -56 106 25 25 c39 39 52 91 35 144 -22 68 -53
83 -170 87 l-99 4 0 -236z m158 148 c17 -12 22 -25 22 -58 0 -49 -11 -61 -57
-68 l-33 -5 0 74 c0 69 1 73 23 73 12 0 33 -7 45 -16z"/>
<path d="M2190 875 l0 -235 40 0 40 0 2 160 3 159 88 -159 c88 -158 89 -160
123 -160 l34 0 0 235 0 235 -40 0 -39 0 -3 -137 -3 -138 -75 137 -75 138 -47
0 -48 0 0 -235z"/>
<path d="M2620 875 l0 -235 40 0 40 0 0 235 0 235 -40 0 -40 0 0 -235z"/>
<path d="M2885 1095 c-70 -38 -105 -98 -113 -191 -9 -121 42 -227 124 -254 44
-15 135 -14 180 0 l34 12 0 89 0 89 -45 0 -45 0 0 -59 c0 -54 -2 -60 -22 -63
-67 -10 -111 26 -127 102 -18 83 4 163 54 196 25 16 93 16 141 -1 19 -6 22 -2
28 30 5 24 3 42 -4 49 -19 19 -170 19 -205 1z"/>
<path d="M3200 875 l0 -236 128 3 127 3 3 37 3 37 -88 3 -88 3 -3 58 -3 57 69
0 70 0 4 40 3 39 -70 3 -70 3 -3 53 -3 52 85 0 86 0 0 40 0 40 -125 0 -125 0
0 -235z"/>
<path d="M3530 875 l0 -235 45 0 45 0 0 90 c0 83 2 90 20 90 15 0 31 -22 65
-90 l45 -90 51 0 50 0 -55 105 -55 105 29 28 c57 57 47 165 -19 209 -29 20
-47 23 -127 23 l-94 0 0 -235z m165 140 c46 -46 22 -115 -41 -115 l-34 0 0 70
c0 68 1 70 25 70 14 0 37 -11 50 -25z"/>
<path d="M3984 1100 c-73 -29 -120 -135 -111 -249 9 -124 58 -193 149 -209
128 -24 216 56 226 204 8 122 -28 213 -98 249 -31 16 -131 19 -166 5z m135
-94 c49 -52 51 -200 4 -256 -19 -24 -33 -30 -62 -30 -55 0 -85 40 -94 122 -7
64 9 137 35 165 30 32 87 31 117 -1z"/>
<path d="M4320 875 l0 -235 88 0 c48 0 103 5 124 10 45 13 103 75 117 127 17
61 13 172 -8 218 -42 90 -90 115 -226 115 l-95 0 0 -235z m210 127 c21 -22 30
-42 35 -84 16 -126 -24 -198 -109 -198 l-46 0 0 155 0 155 46 0 c37 0 51 -5
74 -28z"/>
<path d="M4730 875 l0 -235 130 0 130 0 0 24 c0 13 3 31 6 40 5 14 -6 16 -85
16 l-91 0 0 60 0 60 70 0 70 0 0 40 0 40 -70 0 -70 0 0 55 0 55 79 0 c84 0 91
4 91 56 l0 24 -130 0 -130 0 0 -235z"/>
<path d="M3610 365 c0 -163 -2 -159 74 -159 54 -1 96 46 96 109 0 58 -16 91
-52 106 -22 9 -35 9 -54 0 -35 -16 -34 -16 -34 39 0 38 -4 50 -15 50 -13 0
-15 -23 -15 -145z m110 15 c53 -53 0 -171 -62 -138 -14 7 -18 22 -18 74 0 58
2 66 23 74 32 13 35 12 57 -10z"/>
<path d="M878 494 c-15 -15 6 -34 38 -34 l34 0 0 -125 c0 -118 1 -125 20 -125
19 0 20 7 20 125 l0 125 36 0 c28 0 35 3 32 18 -3 14 -17 17 -89 20 -47 1 -88
0 -91 -4z"/>
<path d="M1134 481 c-37 -22 -54 -65 -54 -133 0 -104 61 -163 142 -139 61 19
94 88 82 176 -13 96 -94 142 -170 96z m111 -52 c8 -15 15 -52 15 -82 0 -67
-26 -107 -70 -107 -43 0 -70 40 -70 106 0 66 15 101 49 112 37 12 60 4 76 -29z"/>
<path d="M1360 378 c0 -65 4 -128 10 -138 13 -24 72 -43 110 -35 58 13 70 43
70 175 0 97 -3 117 -15 117 -12 0 -15 -18 -15 -101 0 -123 -11 -150 -61 -154
-21 -2 -40 3 -47 11 -7 7 -13 61 -14 127 -3 99 -5 113 -20 116 -16 2 -18 -9
-18 -118z"/>
<path d="M1625 491 c-3 -2 -5 -67 -5 -143 0 -131 1 -138 20 -138 18 0 20 7 20
54 0 37 4 56 14 59 16 7 22 0 60 -65 18 -33 33 -48 47 -48 19 0 18 5 -15 64
-32 57 -34 65 -20 77 47 39 36 120 -20 139 -31 10 -92 11 -101 1z m111 -67 c8
-31 -19 -64 -53 -64 -21 0 -23 4 -23 49 0 39 4 50 18 54 26 6 51 -11 58 -39z"/>
<path d="M1849 498 c-1 -2 -2 -67 -3 -145 -2 -139 -2 -143 18 -143 20 0 21 4
19 142 -1 121 -4 144 -17 146 -9 2 -16 2 -17 0z"/>
<path d="M1984 490 c-27 -11 -46 -63 -35 -93 5 -13 30 -40 55 -61 46 -38 56
-62 34 -84 -15 -15 -65 -16 -74 -1 -5 8 -10 6 -16 -6 -15 -25 6 -40 56 -40 56
0 86 25 86 72 0 46 -13 67 -55 93 -19 12 -40 31 -46 43 -16 29 20 59 62 50 25
-5 29 -2 29 16 0 18 -6 21 -37 20 -21 0 -48 -4 -59 -9z"/>
<path d="M2156 456 c-3 -23 -8 -87 -11 -144 -5 -95 -4 -103 12 -100 16 3 18
17 21 101 1 53 6 97 10 97 4 0 21 -44 37 -97 27 -89 33 -98 55 -98 22 0 27 9
54 98 17 55 34 95 39 91 4 -4 7 -49 7 -101 0 -87 1 -93 21 -93 19 0 20 4 14
113 -9 168 -11 178 -38 168 -17 -6 -30 -33 -59 -122 -24 -74 -39 -108 -43 -97
-4 9 -22 63 -40 119 -27 84 -37 103 -54 104 -17 1 -21 -6 -25 -39z"/>
<path d="M2640 392 c0 -123 -11 -152 -60 -152 -52 0 -60 19 -60 141 0 102 -1
109 -20 109 -19 0 -20 -7 -20 -114 0 -127 13 -158 70 -171 38 -8 97 11 110 35
6 10 10 70 10 133 0 93 -3 116 -15 121 -13 5 -15 -11 -15 -102z"/>
<path d="M2762 483 c-12 -10 -25 -33 -28 -51 -6 -31 -2 -37 50 -85 56 -53 66
-73 44 -95 -15 -15 -60 -16 -76 0 -9 9 -13 7 -18 -6 -10 -26 12 -41 62 -41 36
0 50 5 65 24 30 36 25 83 -13 120 -17 17 -35 31 -40 31 -4 0 -15 11 -24 25
-22 34 -4 55 48 55 32 0 39 3 36 18 -5 25 -77 29 -106 5z"/>
<path d="M3085 490 c-46 -19 -67 -56 -72 -127 -4 -57 -1 -74 17 -101 28 -45
81 -67 135 -55 l40 8 3 53 c3 47 1 52 -17 52 -18 0 -21 -6 -21 -40 0 -39 -1
-40 -35 -40 -62 0 -92 50 -82 136 7 67 30 87 94 82 37 -3 54 -1 57 9 11 27
-70 44 -119 23z"/>
<path d="M3840 355 c0 -120 2 -145 15 -145 10 0 15 16 17 63 l3 62 58 3 57 3
0 -66 c0 -58 2 -65 20 -65 19 0 20 7 20 138 0 76 -3 141 -6 145 -3 3 -12 3
-20 0 -10 -4 -14 -23 -14 -65 l0 -59 -57 3 -58 3 -5 60 c-3 37 -10 61 -17 63
-10 1 -13 -32 -13 -143z"/>
<path d="M3340 421 c-8 -6 -27 -7 -42 -4 l-28 6 0 -107 c0 -99 1 -106 20 -106
18 0 20 7 20 85 0 80 2 86 23 94 45 17 57 -2 57 -94 0 -78 2 -85 20 -85 18 0
20 7 20 85 0 74 2 86 20 95 14 8 26 8 40 0 18 -9 20 -21 20 -95 0 -78 2 -85
20 -85 18 0 20 7 20 79 0 44 -4 91 -10 105 -12 33 -55 44 -90 24 -23 -13 -29
-13 -45 -2 -22 16 -44 18 -65 5z"/>
</g>
</svg>
