<?xml version="1.0" standalone="no"?>
<!DOCTYPE svg PUBLIC "-//W3C//DTD SVG 20010904//EN"
 "http://www.w3.org/TR/2001/REC-SVG-20010904/DTD/svg10.dtd">
<svg version="1.0" xmlns="http://www.w3.org/2000/svg"
 width="200.000000pt" height="200.000000pt" viewBox="0 0 200.000000 200.000000"
 preserveAspectRatio="xMidYMid meet">

<g transform="translate(0.000000,200.000000) scale(0.100000,-0.100000)"
fill="#000000" stroke="none">
<path d="M1352 1665 c-348 -76 -604 -363 -552 -621 18 -90 18 -100 -5 -96 -21
4 -56 28 -185 127 l-85 65 -195 -1 c-184 0 -194 -1 -171 -16 12 -9 78 -60 145
-112 333 -261 392 -295 456 -261 10 5 45 66 78 135 138 284 300 474 508 596
74 43 149 78 100 46 -202 -130 -364 -314 -480 -544 -47 -93 -100 -223 -93
-229 2 -2 41 6 87 17 164 39 313 133 431 272 34 40 112 149 174 242 111 167
191 258 263 300 17 11 32 22 32 25 0 9 -124 48 -189 60 -75 14 -244 11 -319
-5z"/>
<path d="M223 610 c-27 -11 -35 -37 -34 -107 0 -70 21 -98 66 -88 16 3 41 6
56 6 24 0 25 3 25 55 0 45 -3 54 -17 54 -14 0 -19 -10 -21 -42 -3 -36 -7 -44
-26 -46 -36 -5 -52 15 -52 65 0 67 12 83 65 83 25 0 45 4 45 9 0 21 -66 27
-107 11z"/>
<path d="M397 613 c-4 -3 -7 -48 -7 -100 0 -76 3 -93 15 -93 11 0 15 11 15 35
0 62 56 59 74 -4 6 -20 15 -31 27 -31 15 0 16 5 9 31 -5 17 -14 37 -21 45 -9
11 -8 15 5 20 11 4 16 19 16 45 0 33 -4 41 -26 49 -29 11 -97 13 -107 3z m101
-55 c3 -22 -2 -29 -22 -34 -39 -9 -56 1 -56 36 0 30 2 31 38 28 32 -3 37 -7
40 -30z"/>
<path d="M608 609 c-15 -8 -18 -25 -18 -95 0 -82 1 -85 26 -94 27 -11 104 -3
104 11 0 4 -21 9 -47 11 -46 3 -48 4 -51 36 -3 32 -3 32 42 32 25 0 46 5 46
10 0 6 -21 10 -46 10 -44 0 -45 1 -42 28 3 25 7 27 51 30 56 4 62 17 10 26
-49 8 -55 7 -75 -5z"/>
<path d="M793 610 c-21 -9 -23 -16 -23 -95 0 -83 1 -86 26 -95 27 -11 104 -3
104 11 0 4 -21 9 -47 11 -46 3 -48 4 -48 33 0 28 3 30 43 33 57 4 54 22 -4 22
-44 0 -45 1 -42 28 3 25 7 27 51 30 26 2 47 7 47 13 0 5 -6 9 -14 9 -7 0 -26
2 -42 5 -16 2 -39 0 -51 -5z"/>
<path d="M1188 609 c-21 -12 -25 -71 -5 -86 6 -6 29 -16 50 -23 30 -9 38 -16
35 -33 -3 -19 -11 -22 -50 -25 -72 -5 -58 -32 16 -32 48 0 68 19 64 60 -3 30
-9 38 -48 57 -63 30 -62 57 3 61 47 3 61 15 31 26 -24 9 -77 7 -96 -5z"/>
<path d="M1490 613 c-29 -11 -40 -37 -40 -100 0 -76 23 -110 68 -98 15 4 39 7
55 6 26 0 27 1 27 54 0 48 -3 55 -19 55 -16 0 -20 -8 -23 -42 -3 -37 -6 -43
-27 -46 -32 -5 -51 21 -51 71 0 61 13 77 66 77 32 0 44 4 42 13 -5 13 -72 20
-98 10z"/>
<path d="M950 510 c0 -84 2 -98 15 -94 12 5 15 25 16 88 l0 81 42 -82 c34 -68
46 -83 64 -83 22 0 23 3 23 95 0 78 -3 95 -15 95 -12 0 -15 -16 -15 -82 l-1
-83 -37 83 c-33 74 -40 82 -64 82 l-28 0 0 -100z"/>
<path d="M1360 515 c0 -78 3 -95 15 -95 12 0 15 17 15 95 0 78 -3 95 -15 95
-12 0 -15 -17 -15 -95z"/>
<path d="M1650 515 c0 -90 1 -95 21 -95 20 0 21 4 17 80 -2 44 -2 80 -1 80 2
0 19 -36 39 -80 31 -67 41 -80 60 -80 13 0 24 3 25 8 0 4 1 46 2 95 2 77 0 87
-15 87 -16 0 -18 -11 -19 -77 l-1 -78 -36 78 c-32 69 -39 77 -64 77 l-28 0 0
-95z"/>
</g>
</svg>
