<?xml version="1.0" encoding="UTF-8"?>
<!DOCTYPE svg PUBLIC "-//W3C//DTD SVG 1.1//EN" "http://www.w3.org/Graphics/SVG/1.1/DTD/svg11.dtd">
<!-- Creator: CorelDRAW -->
<svg xmlns="http://www.w3.org/2000/svg" xml:space="preserve" width="3200px" height="1679px" style="shape-rendering:geometricPrecision; text-rendering:geometricPrecision; image-rendering:optimizeQuality; fill-rule:evenodd; clip-rule:evenodd"
viewBox="0 0 3442.02 1806.16"
 xmlns:xlink="http://www.w3.org/1999/xlink">
 <defs>
  <style type="text/css">
   <![CDATA[
    .fil1 {fill:#027373}
    .fil0 {fill:#141516}
   ]]>
  </style>
 </defs>
 <g id="Ebene_x0020_1">
  <metadata id="CorelCorpID_0Corel-Layer"/>
  <g id="_80846072">
   <path id="_81089200" class="fil0" d="M1900.28 376.471c-46.6425,0 -67.2273,-29.2237 -67.2273,-76.1914l0 -13.445 -49.299 0c0,75.3314 28.8832,129.973 103.081,129.973l13.445 0c66.1995,0 121.008,-39.2423 121.008,-103.081l0 -22.4091c0,-118.056 -179.272,-74.3646 -179.272,-170.309l0 -17.927c0,-26.5812 27.5543,-49.299 53.7811,-49.299l13.445 0c60.0799,0 38.9374,67.226 62.7452,67.226l35.8553 0 0 -22.4091c0,-50.5326 -42.4222,-85.1531 -94.1185,-85.1531l-17.927 0c-117.499,0 -143.414,146.951 -52.0978,199.996 39.5993,23.0037 94.5377,22.3405 117.726,61.5459 27.5327,46.5523 -7.13854,101.483 -61.1458,101.483z"/>
   <polygon id="_81132448" class="fil0" points="2379.83,407.843 2429.13,407.843 2429.13,224.09 2559.1,224.09 2559.1,407.843 2608.4,407.843 2608.4,17.927 2559.1,17.927 2559.1,179.272 2429.13,179.272 2429.13,17.927 2379.83,17.927 "/>
   <path id="_82138824" class="fil0" d="M2079.55 183.754l0 53.7823c0,95.3178 26.9102,179.272 121.008,179.272l13.445 0c72.3344,0 101.867,-74.9579 107.563,-143.417l-53.7811 0 0 22.4091c0,36.6963 -20.8668,80.6722 -58.2631,80.6722l-13.4462 0c-62.4746,0 -67.226,-95.4499 -67.226,-161.344l0 -4.48207c0,-63.6002 6.94162,-156.862 67.226,-156.862l13.4462 0c29.042,0 53.7811,31.2907 53.7811,58.2631l0 22.4091 53.7811 0c-1.44829,-65.018 -33.9471,-121.008 -98.5993,-121.008l-17.927 0c-87.7206,0 -121.008,82.32 -121.008,170.307z"/>
   <path id="_80740216" class="fil0" d="M1192.16 179.272l0 67.2273c0,87.9886 33.2878,170.309 121.008,170.309l4.48207 0c76.7695,0 116.526,-66.8728 116.526,-143.417l-40.3361 0c-26.7895,0 1.03667,103.081 -71.7081,103.081 -77.6004,0 -76.4443,-83.7353 -80.8793,-156.998 -4.28262,-70.7464 8.29463,-165.691 76.3973,-165.691 53.9361,0 53.043,39.0314 62.7452,80.6722l49.299 0c0,-67.4992 -34.0081,-121.008 -98.5993,-121.008l-17.927 0c-84.3997,0 -121.008,82.4305 -121.008,165.825z"/>
   <path id="_40824224" class="fil0" d="M927.731 215.127c0,-65.5109 5.29388,-161.344 67.2273,-161.344l4.48207 0c63.0603,0 76.1902,70.4313 76.1902,134.453l0 58.2631c0,69.2816 -13.8667,129.973 -85.1543,129.973 -56.1314,0 -62.7452,-99.9764 -62.7452,-161.344zm-49.3003 -31.3732l0 71.7094c0,83.1318 36.9974,161.344 121.01,161.344l4.4808 0c85.3766,0 121.008,-80.4182 121.008,-165.827l0 -44.8182c0,-92.0146 -24.0937,-192.716 -112.044,-192.716l-13.445 0c-88.2326,0 -121.01,81.9389 -121.01,170.307z"/>
   <path id="_81114216" class="fil0" d="M2680.11 277.872c0,75.5334 25.5941,138.935 98.5993,138.935l26.8912 0c59.982,0 103.081,-55.068 103.081,-116.528l0 -277.871 -49.3003 0 0 277.871c0,45.4699 -16.8853,76.1914 -62.7452,76.1914l-13.445 0c-37.7394,0 -53.7811,-37.4764 -53.7811,-76.1914l0 -277.871 -49.3003 0 0 255.463z"/>
   <polygon id="_81670128" class="fil0" points="578.151,407.843 622.969,407.843 622.969,224.09 757.422,224.09 757.422,407.843 802.24,407.843 802.24,22.4091 757.422,22.4091 757.422,179.272 622.969,179.272 622.969,22.4091 578.151,22.4091 "/>
   <polygon id="_81647160" class="fil0" points="1492.44,407.843 1541.74,407.843 1541.74,224.09 1671.71,224.09 1671.71,407.843 1721.01,407.843 1721.01,22.4091 1671.71,22.4091 1671.71,179.272 1541.74,179.272 1541.74,22.4091 1492.44,22.4091 "/>
   <polygon id="_81114384" class="fil0" points="2980.39,407.843 3186.55,407.843 3186.55,363.025 3029.69,363.025 3029.69,17.927 2980.39,17.927 "/>
   <path id="_80846936" class="fil0" d="M3235.85 407.843l206.163 0 0 -44.8182 -156.864 0 0 -134.453 143.417 0 0 -44.8182 -143.417 0 0 -116.526 138.935 0c10.3273,0 13.4462,-3.1189 13.4462,-13.445l0 -35.8553 -201.681 0 0 389.916z"/>
   <path id="_81114552" class="fil0" d="M0 1797.2l345.098 0 0 -788.795c0,-60.0545 10.3553,-138.935 67.2273,-138.935l26.8899 0c41.1428,0 62.7452,46.4596 62.7452,89.6364l0 838.094 345.098 0 0 -994.957c0,-129.633 -97.6198,-246.499 -224.09,-246.499l-26.8912 0c-64.0284,0 -110.868,15.672 -150.597,42.1198 -48.0464,31.9856 -72.2125,83.9411 -94.9722,101.251l-5.41076 -129.926 0 -569.188 -345.098 0 0 1797.2z"/>
   <path id="_80846648" class="fil0" d="M2187.11 743.979l0 -156.864 -331.653 0 0 1210.08 331.653 0 0 -838.094c0,-51.2008 13.694,-112.045 62.7452,-112.045l13.445 0c34.5519,0 62.7452,40.1252 62.7452,76.1914l0 318.207 331.652 0 0 -439.215c0,-139.436 -79.4234,-233.054 -215.126,-233.054 -201.407,0 -224.903,163.728 -255.462,174.791z"/>
   <path id="_81114720" class="fil0" d="M2724.93 806.722l304.762 0c-53.7264,101.538 -533.334,752.263 -533.334,779.833l0 210.643 -22.4091 0 968.068 0 -8.96415 0 0 -219.608 -555.743 0c55.5178,-104.92 546.779,-780.228 546.779,-811.205l0 -179.272 -699.159 0 0 219.608z"/>
   <path id="_80846360" class="fil1" d="M1277.31 1340.06c0,-44.9084 18.2014,-69.8774 41.4109,-93.0424 9.64129,-9.62223 68.0048,-54.8571 79.5975,-54.8571l13.445 0 0 273.39c0,36.2708 -21.9937,76.1902 -58.2631,76.1902l-26.8912 0c-28.7193,0 -49.299,-27.6522 -49.299,-58.2631l0 -143.417zm-138.935 466.106l85.1531 0c3.38188,-2.14575 52.2731,-15.9096 64.1897,-20.9646 20.99,-8.90317 36.535,-19.0526 51.258,-33.8963 38.2755,-38.5918 44.5387,-65.0193 72.788,-97.5194l0 138.935 336.134 0 0 -878.432c0,-239.954 -159.913,-349.58 -398.879,-349.58l-8.96288 0c-227.085,0 -398.88,111.487 -398.88,336.135l0 103.081 336.135 0 0 -152.382c0,-37.9172 23.4864,-67.226 62.7452,-67.226 40.4517,0 71.7081,20.567 71.7081,58.2631l0 44.8169c0,209.814 -470.589,159.778 -470.589,515.407l0 125.49c0,82.5055 10.7262,141.643 46.607,190.928 21.3343,29.305 29.4828,37.0355 59.9846,56.5417 30.0787,19.2368 77.937,22.3621 90.6083,30.4014z"/>
  </g>
 </g>
</svg>
