<?xml version="1.0" standalone="no"?>
<!DOCTYPE svg PUBLIC "-//W3C//DTD SVG 20010904//EN"
 "http://www.w3.org/TR/2001/REC-SVG-20010904/DTD/svg10.dtd">
<svg version="1.0" xmlns="http://www.w3.org/2000/svg"
 width="450.000000pt" height="207.000000pt" viewBox="0 0 450.000000 207.000000"
 preserveAspectRatio="xMidYMid meet">

<g transform="translate(0.000000,207.000000) scale(0.100000,-0.100000)"
fill="#000000" stroke="none">
<path d="M845 1909 c-95 -14 -133 -23 -142 -36 -19 -25 -16 -32 21 -54 l33
-19 8 -176 c4 -96 4 -178 0 -182 -7 -7 -266 -51 -302 -52 l-23 0 0 206 0 206
35 32 c39 36 46 71 15 81 -25 8 -311 -33 -328 -47 -21 -18 -13 -47 17 -62 19
-10 30 -26 35 -47 10 -52 7 -782 -4 -840 -11 -56 -36 -91 -82 -115 -36 -18
-40 -69 -7 -79 54 -18 170 20 233 75 73 64 81 92 84 297 l4 182 26 5 c38 8
280 46 292 46 13 0 14 -379 0 -415 -5 -14 -21 -30 -35 -35 -19 -7 -25 -17 -25
-39 0 -17 6 -31 16 -35 31 -12 319 -7 332 6 20 20 14 47 -15 65 -16 10 -31 22
-35 28 -4 5 -8 212 -8 459 l0 448 35 32 c37 34 46 70 19 80 -22 8 -51 6 -199
-15z"/>
<path d="M1450 1670 c-89 -24 -222 -86 -267 -124 -42 -35 -42 -67 -4 -128 33
-52 71 -81 98 -76 13 2 20 17 26 58 12 86 44 141 99 168 42 21 50 22 75 10 28
-13 28 -14 30 -118 l2 -105 -130 -63 c-207 -101 -243 -143 -244 -287 0 -74 4
-97 22 -132 32 -60 76 -87 138 -87 58 0 90 15 168 79 l57 46 0 -31 c0 -37 23
-85 45 -94 55 -21 285 94 285 143 0 34 -23 43 -65 25 -28 -11 -41 -12 -49 -4
-7 7 -13 118 -16 345 l-5 335 -27 27 c-24 24 -37 28 -95 30 -44 2 -94 -4 -143
-17z m60 -540 l0 -129 -43 -26 c-24 -14 -58 -25 -76 -25 -39 0 -51 26 -51 106
0 63 17 110 51 140 23 21 96 63 112 64 4 0 7 -58 7 -130z"/>
<path d="M1988 1666 c-116 -48 -183 -98 -176 -133 3 -18 17 -20 88 -11 l25 3
5 -335 c5 -365 9 -390 64 -404 58 -14 276 92 285 138 6 33 -25 47 -66 30 -62
-26 -63 -21 -63 238 0 249 6 282 54 313 24 16 28 16 50 2 13 -9 32 -37 41 -62
23 -58 49 -60 98 -6 46 51 67 92 67 131 0 61 -64 120 -130 120 -55 0 -99 -32
-153 -113 l-25 -37 -7 52 c-8 58 -40 98 -77 98 -13 0 -48 -11 -80 -24z"/>
<path d="M2600 1641 c-26 -26 -55 -69 -65 -94 -28 -74 -22 -77 166 -77 88 0
159 -3 159 -7 -1 -5 -26 -36 -58 -71 -52 -58 -59 -63 -83 -54 -90 35 -232 17
-299 -37 -59 -47 -80 -87 -80 -150 0 -60 7 -77 30 -83 11 -2 15 7 15 38 2 73
57 127 142 140 46 7 133 -3 133 -14 0 -4 -48 -63 -106 -132 -153 -180 -156
-184 -158 -231 -1 -54 16 -65 108 -72 40 -3 136 -22 212 -43 116 -32 155 -38
239 -38 92 -1 105 1 159 29 113 57 176 158 184 293 7 132 -34 212 -133 258
-55 26 -113 30 -166 13 -37 -13 -97 -64 -108 -92 -6 -17 -11 -14 -35 17 l-28
37 36 42 c19 23 78 92 131 152 157 181 153 189 -90 193 -137 2 -182 6 -198 17
-35 25 -58 17 -107 -34z m527 -431 c49 -29 66 -71 61 -151 -4 -83 -24 -114
-92 -148 -68 -34 -159 -33 -291 4 -55 15 -132 32 -172 39 l-72 11 57 65 c31
36 76 88 99 115 l41 49 36 -28 c20 -14 47 -47 62 -71 14 -25 29 -45 34 -45 4
0 11 20 15 45 7 48 51 110 89 125 37 15 100 11 133 -10z"/>
<path d="M1834 416 c-7 -19 3 -36 22 -36 10 0 14 8 12 22 -4 26 -26 36 -34 14z"/>
<path d="M3013 423 c-10 -3 -13 -43 -13 -149 l0 -144 25 0 c15 0 25 5 23 12
-4 21 12 68 22 68 5 0 19 -18 30 -40 16 -30 26 -40 45 -40 14 0 25 3 25 6 0 4
-14 33 -32 65 l-32 58 20 23 c47 54 49 58 20 58 -19 0 -33 -10 -54 -40 -15
-21 -31 -39 -37 -40 -6 0 -10 34 -10 82 0 79 -5 92 -32 81z"/>
<path d="M3538 423 c-13 -3 -18 -15 -18 -42 0 -36 -1 -37 -37 -38 -55 -2 -93
-47 -93 -112 0 -33 6 -56 20 -74 19 -24 27 -26 90 -25 l70 0 0 149 c0 82 -3
148 -7 148 -5 -1 -16 -3 -25 -6z m-20 -185 c-3 -58 -5 -63 -27 -66 -30 -5 -51
20 -51 60 0 42 20 68 53 68 l28 0 -3 -62z"/>
<path d="M4167 423 c-15 -14 -7 -43 12 -43 26 0 36 17 21 35 -14 16 -23 19
-33 8z"/>
<path d="M692 412 c-17 -3 -23 -9 -19 -21 2 -10 19 -72 38 -139 l34 -122 33 0
c17 0 32 1 32 3 0 2 18 64 40 137 22 73 40 135 40 137 0 3 -12 3 -27 1 -25 -3
-29 -10 -50 -83 -13 -44 -26 -87 -29 -95 -3 -8 -19 29 -36 85 -16 55 -30 100
-31 100 -1 1 -13 -1 -25 -3z"/>
<path d="M220 270 l0 -140 25 0 c24 0 25 3 25 60 l0 60 45 0 45 0 0 -60 0 -60
30 0 30 0 0 140 0 140 -30 0 c-30 0 -30 -1 -30 -55 l0 -55 -45 0 -45 0 0 55
c0 52 -1 55 -25 55 l-25 0 0 -140z"/>
<path d="M460 385 c0 -22 4 -25 35 -25 l35 0 0 -115 0 -115 25 0 25 0 0 115 0
115 29 0 c26 0 41 14 41 41 0 5 -43 9 -95 9 -95 0 -95 0 -95 -25z"/>
<path d="M1030 385 c0 -22 4 -25 33 -25 l32 0 -3 -115 -4 -115 32 0 31 0 -3
115 -3 115 31 0 c26 0 33 5 36 25 l5 25 -93 0 c-94 0 -94 0 -94 -25z"/>
<path d="M1283 339 c-71 -21 -87 -148 -24 -196 29 -22 95 -16 120 11 28 29 38
95 21 135 -9 24 -65 64 -82 60 -1 0 -18 -5 -35 -10z m69 -64 c8 -17 8 -37 2
-63 -8 -32 -13 -37 -39 -37 -26 0 -31 5 -39 37 -13 50 4 88 39 88 17 0 29 -8
37 -25z"/>
<path d="M1958 336 c-52 -27 -49 -82 7 -116 48 -30 44 -56 -8 -52 -32 2 -37 0
-37 -18 0 -17 6 -20 45 -20 50 0 85 25 85 61 0 21 -53 79 -72 79 -5 0 -8 8 -6
18 2 13 11 16 36 14 26 -3 32 0 32 16 0 24 -49 34 -82 18z"/>
<path d="M2171 340 c-8 -4 -29 -6 -48 -3 l-33 6 0 -107 c0 -106 0 -106 25
-106 24 0 24 2 27 83 3 78 4 82 27 85 33 5 41 -12 41 -95 0 -66 2 -73 20 -73
17 0 19 8 22 83 l3 82 30 0 30 0 3 -82 c3 -81 3 -83 27 -83 25 0 25 1 25 88 0
56 -5 95 -13 106 -15 21 -70 24 -92 6 -11 -9 -19 -10 -23 -3 -10 15 -55 24
-71 13z"/>
<path d="M2679 338 c-52 -20 -55 -78 -4 -110 58 -38 58 -73 -1 -62 -30 5 -34
4 -34 -15 0 -18 6 -21 43 -21 56 0 80 18 80 60 0 33 -9 45 -64 81 -29 20 -21
32 23 33 22 1 34 6 36 17 4 20 -44 30 -79 17z"/>
<path d="M2833 338 c-54 -14 -39 -44 22 -43 36 0 40 -2 40 -25 0 -22 -5 -26
-43 -31 -48 -6 -62 -20 -62 -60 0 -39 17 -48 91 -47 l65 0 -4 92 c-2 50 -9 96
-16 103 -16 17 -55 22 -93 11z m65 -154 c-5 -28 -52 -26 -56 3 -2 16 3 22 20
25 29 5 41 -5 36 -28z"/>
<path d="M3674 340 c-67 -27 -87 -129 -35 -181 24 -23 38 -29 73 -29 47 0 70
14 61 36 -4 10 -16 12 -43 8 -32 -5 -40 -3 -54 17 -9 13 -16 27 -16 31 0 5 27
8 60 8 57 0 60 1 60 25 0 36 -19 71 -47 84 -28 13 -31 13 -59 1z m44 -42 c21
-21 13 -38 -17 -38 -37 0 -46 13 -25 34 19 19 26 20 42 4z"/>
<path d="M3910 340 c-14 -4 -40 -5 -57 -2 l-33 5 0 -107 c0 -106 0 -106 25
-106 24 0 24 2 27 83 l3 82 30 0 30 0 3 -82 c3 -80 4 -83 27 -83 23 0 24 3 27
83 3 80 4 82 28 82 24 0 25 -2 28 -82 3 -81 3 -83 28 -83 l25 0 -3 97 c-3 96
-4 98 -31 111 -23 11 -32 11 -58 -2 -26 -13 -34 -13 -52 -2 -14 8 -32 10 -47
6z"/>
<path d="M4313 338 c-64 -17 -85 -120 -37 -178 24 -28 31 -31 78 -28 45 3 51
6 54 26 3 22 1 23 -33 16 -27 -5 -41 -2 -55 11 -35 32 -25 45 35 45 l55 0 0
38 c0 58 -39 86 -97 70z m47 -43 c17 -20 4 -35 -31 -35 -30 0 -38 17 -17 38
16 16 33 15 48 -3z"/>
<path d="M1451 258 c2 -117 11 -127 99 -126 l70 0 0 104 c0 104 0 104 -25 104
-24 0 -24 -2 -27 -82 -3 -79 -4 -83 -27 -86 -33 -5 -41 12 -41 96 0 70 -1 72
-25 72 -26 0 -26 0 -24 -82z"/>
<path d="M1680 235 l0 -105 25 0 c25 0 25 1 25 80 0 64 3 80 15 81 8 1 21 2
28 3 6 0 13 11 15 24 3 16 -2 22 -15 22 -11 0 -24 -5 -31 -12 -9 -9 -12 -9
-12 0 0 7 -11 12 -25 12 l-25 0 0 -105z"/>
<path d="M1830 235 c0 -98 1 -105 20 -105 19 0 20 7 20 105 0 98 -1 105 -20
105 -19 0 -20 -7 -20 -105z"/>
<path d="M2420 263 c0 -43 6 -89 13 -103 12 -23 18 -25 90 -26 65 -2 77 1 73
13 -3 8 -6 55 -6 104 0 82 -1 89 -20 89 -18 0 -20 -7 -20 -80 0 -78 -1 -80
-27 -86 -39 -10 -53 16 -53 98 0 66 -1 68 -25 68 -25 0 -25 -1 -25 -77z"/>
<path d="M3214 334 c-7 -3 -10 -13 -7 -24 4 -15 13 -18 46 -17 39 2 42 0 42
-23 0 -21 -5 -25 -35 -28 -42 -4 -70 -27 -70 -58 0 -40 24 -53 96 -52 l66 0
-4 95 c-2 70 -7 96 -18 103 -15 10 -96 12 -116 4z m86 -144 c0 -19 -32 -36
-50 -25 -18 11 -11 35 13 44 27 11 37 6 37 -19z"/>
<path d="M4160 235 l0 -105 25 0 26 0 -2 105 c-1 103 -2 105 -25 105 -24 0
-24 -1 -24 -105z"/>
<path d="M913 245 c-8 -22 2 -29 47 -30 35 -1 40 2 40 22 0 20 -5 23 -40 23
-27 0 -43 -5 -47 -15z"/>
</g>
</svg>
